<?xml version="1.0" encoding="iso-8859-1"?>
<!-- Uploaded to: SVG Repo, www.svgrepo.com, Generator: SVG Repo Mixer Tools -->
<svg version="1.1" id="Layer_1" xmlns="http://www.w3.org/2000/svg" xmlns:xlink="http://www.w3.org/1999/xlink" 
	 viewBox="0 0 512 512" xml:space="preserve">
<path style="fill:#875426;" d="M376,128c13.6,0,24,11.2,24,24c0,9.6-5.6,18.4-14.4,21.6c0.8-0.8,1.6-0.8,2.4-1.6c2.4-3.2,4-8,4-12
	c0-12.8-10.4-24-24-24c-4.8,0-8.8,1.6-12,4c-0.8,0.8-0.8,1.6-1.6,2.4C357.6,133.6,366.4,128,376,128z"/>
<polygon style="fill:#42210B;" points="424,240 424,224 440,224 440,240 448,240 448,256 440,256 440,272 448,272 448,288 440,288 
	440,304 448,304 448,320 440,320 440,336 424,336 424,320 416,320 416,304 424,304 424,288 416,288 416,272 424,272 424,256 
	416,256 416,240 "/>
<circle style="fill:#EE5656;" cx="432" cy="416" r="8"/>
<path style="fill:#42210B;" d="M432,408c-4,0-8,4-8,8s4,8,8,8s8-4,8-8S436,408,432,408z M408,416c0-13.6,10.4-24,24-24
	s24,10.4,24,24s-10.4,24-24,24S408,429.6,408,416z"/>
<path style="fill:#996632;" d="M392,160c0,4.8-1.6,8.8-4,12c-0.8,0.8-1.6,0.8-2.4,1.6s-2.4,0.8-3.2,0.8c-0.8,0-1.6,0.8-2.4,0.8
	s-0.8,0-1.6,0c-0.8,0-1.6,0-2.4,0c-13.6,0-24-11.2-24-24c0-0.8,0-1.6,0-2.4c0-0.8,0-0.8,0-1.6s0-1.6,0.8-2.4c0-0.8,0.8-2.4,0.8-3.2
	c0.8-0.8,0.8-1.6,1.6-2.4c4-2.4,8-4,12-4C381.6,136,392,147.2,392,160z"/>
<path style="fill:#42210B;" d="M378.4,176c0.8,0,0.8,0,1.6,0C379.2,176,379.2,176,378.4,176z"/>
<circle style="fill:#EE5656;" cx="368" cy="416" r="8"/>
<g>
	<path style="fill:#42210B;" d="M368,392c13.6,0,24,10.4,24,24s-10.4,24-24,24s-24-10.4-24-24S354.4,392,368,392z M368,424
		c4,0,8-4,8-8s-4-8-8-8s-8,4-8,8S364,424,368,424z"/>
	<path style="fill:#42210B;" d="M352,149.6c0-0.8,0-0.8,0-1.6C352,148.8,352,148.8,352,149.6z"/>
</g>
<circle style="fill:#B37D4D;" cx="332" cy="316" r="12"/>
<path style="fill:#42210B;" d="M344,316c0-6.4-5.6-12-12-12s-12,5.6-12,12s5.6,12,12,12S344,322.4,344,316z M400,152
	c0-12.8-10.4-24-24-24c-9.6,0-18.4,5.6-21.6,14.4c-0.8,0.8-0.8,2.4-0.8,3.2s-0.8,1.6-0.8,2.4c0,0.8,0,0.8,0,1.6s0,1.6,0,2.4
	c0,12.8,10.4,24,24,24c0.8,0,1.6,0,2.4,0s0.8,0,1.6,0c0.8,0,1.6,0,2.4-0.8c0.8,0,2.4-0.8,3.2-0.8C394.4,170.4,400,161.6,400,152z
	 M376,112c22.4,0,40,17.6,40,40c0,19.2-13.6,35.2-32,39.2v84l-27.2,27.2c2.4,4,3.2,8.8,3.2,13.6c0,15.2-12.8,28-28,28
	s-28-12.8-28-28c0-4.8,1.6-9.6,3.2-13.6c4.8-8.8,14.4-14.4,24.8-14.4c4.8,0,9.6,1.6,13.6,3.2l22.4-22.4v-77.6c-18.4-4-32-20-32-39.2
	C336,129.6,353.6,112,376,112z"/>
<path style="fill:#B37D4D;" d="M125.6,232c0,32,26.4,58.4,58.4,58.4s58.4-26.4,58.4-58.4S216,173.6,184,173.6S125.6,200,125.6,232z
	 M184,144c48.8,0,88,39.2,88,88s-39.2,88-88,88s-88-39.2-88-88S135.2,144,184,144z"/>
<path style="fill:#42210B;" d="M184,227.2c-2.4,0-4.8,2.4-4.8,4.8c0,2.4,2.4,4.8,4.8,4.8s4.8-2.4,4.8-4.8S186.4,227.2,184,227.2z
	 M204.8,232c0,11.2-9.6,20.8-20.8,20.8s-20.8-9.6-20.8-20.8s9.6-20.8,20.8-20.8S204.8,220.8,204.8,232z"/>
<g>
	<path style="fill:#FFF8EF;" d="M184,189.6c23.2,0,42.4,19.2,42.4,42.4s-19.2,42.4-42.4,42.4s-42.4-19.2-42.4-42.4
		S160.8,189.6,184,189.6z M184,252.8c11.2,0,20.8-9.6,20.8-20.8s-9.6-20.8-20.8-20.8s-20.8,9.6-20.8,20.8
		C163.2,243.2,172.8,252.8,184,252.8z"/>
	<rect x="48" y="408" style="fill:#FFF8EF;" width="96" height="16"/>
</g>
<path style="fill:#42210B;" d="M184,274.4c23.2,0,42.4-19.2,42.4-42.4s-19.2-42.4-42.4-42.4s-42.4,19.2-42.4,42.4
	S160.8,274.4,184,274.4z M242.4,232c0,32-26.4,58.4-58.4,58.4S125.6,264,125.6,232s26.4-58.4,58.4-58.4S242.4,200,242.4,232z"/>
<path style="fill:#CC9966;" d="M272,232c0-48.8-39.2-88-88-88s-88,39.2-88,88s39.2,88,88,88S272,280.8,272,232z M184,120
	c61.6,0,112,50.4,112,112s-50.4,112-112,112S72,293.6,72,232S122.4,120,184,120z"/>
<path style="fill:#42210B;" d="M184,344c61.6,0,112-50.4,112-112s-50.4-112-112-112S72,170.4,72,232S122.4,344,184,344z M184,104
	c70.4,0,128,57.6,128,128c0,24-6.4,47.2-18.4,66.4C271.2,335.2,230.4,360,184,360c-70.4,0-128-57.6-128-128S113.6,104,184,104z"/>
<path style="fill:#FFF8EF;" d="M376,96H184H48v136v136h136h280V96H376z M184,360c-70.4,0-128-57.6-128-128s57.6-128,128-128
	s128,57.6,128,128c0,24-6.4,47.2-18.4,66.4C271.2,335.2,230.4,360,184,360z M384,191.2v84l-27.2,27.2c2.4,4,3.2,8,3.2,13.6
	c0,15.2-12.8,28-28,28s-28-12.8-28-28c0-4.8,1.6-9.6,3.2-13.6c4.8-8.8,14.4-14.4,24.8-14.4c4.8,0,9.6,1.6,13.6,3.2l22.4-22.4v-77.6
	c-18.4-4-32-20-32-39.2c0-22.4,17.6-40,40-40s40,17.6,40,40C416,171.2,402.4,187.2,384,191.2z M448,256h-8v16h8v16h-8v16h8v16h-8v16
	h-16v-16h-8v-16h8v-16h-8v-16h8v-16h-8v-16h8v-16h16v16h8V256z"/>
<g>
	<path style="fill:#42210B;" d="M376,96H184H48v136v136h136h280V96H376z M432,384H152H40c-4.8,0-8-4-8-8V88c0-4.8,3.2-8,8-8h432
		c4,0,8,3.2,8,8v288c0,4-4,8-8,8H432z"/>
	<path style="fill:#42210B;" d="M144,424v-16H48v16H144z M40,392h112c4,0,8,4,8,8v32c0,4-4,8-8,8H40c-4.8,0-8-4-8-8v-32
		C32,396,35.2,392,40,392z"/>
</g>
<path style="fill:#996632;" d="M16,64v384h136h280h64V64H16z M160,432c0,4-4,8-8,8H40c-4,0-8-4-8-8v-32c0-4,4-8,8-8h112c4,0,8,4,8,8
	V432z M368,440c-13.6,0-24-11.2-24-24c0-13.6,10.4-24,24-24s24,10.4,24,24C392,428.8,381.6,440,368,440z M432,440
	c-13.6,0-24-11.2-24-24c0-13.6,10.4-24,24-24s24,10.4,24,24C456,428.8,445.6,440,432,440z M480,376c0,4-4,8-8,8h-40H152H40
	c-4,0-8-4-8-8V88c0-4,4-8,8-8h432c4,0,8,4,8,8V376z"/>
<path style="fill:#42210B;" d="M496,448V64H16v384h136h280H496z M512,56v400c0,4-4,8-8,8H8c-4.8,0-8-4-8-8V56c0-4.8,3.2-8,8-8h496
	C508,48,512,51.2,512,56z"/>
<path style="fill:#E0CBB5;" d="M376,96l28.8,7.2c20.8,4.8,35.2,24,35.2,44.8v76v16h8v16h-8v16h8v16h-8v16h8v16h-8v16l0,0
	c0,9.6-6.4,16.8-16,18.4L344,368h120V96H376z"/>
</svg>